<svg width="17" height="17" viewBox="0 0 17 17" fill="none" xmlns="http://www.w3.org/2000/svg">
<g id="material-symbols:password">
<path id="Vector" d="M1.41665 13.4583V12.0417H15.5833V13.4583H1.41665ZM2.23123 9.17292L1.3104 8.64167L1.91248 7.57917H0.708313V6.51667H1.91248L1.3104 5.48958L2.23123 4.95833L2.83331 5.98542L3.4354 4.95833L4.35623 5.48958L3.75415 6.51667H4.95831V7.57917H3.75415L4.35623 8.64167L3.4354 9.17292L2.83331 8.11042L2.23123 9.17292ZM7.8979 9.17292L6.97706 8.64167L7.57915 7.57917H6.37498V6.51667H7.57915L6.97706 5.48958L7.8979 4.95833L8.49998 5.98542L9.10206 4.95833L10.0229 5.48958L9.42081 6.51667H10.625V7.57917H9.42081L10.0229 8.64167L9.10206 9.17292L8.49998 8.11042L7.8979 9.17292ZM13.5646 9.17292L12.6437 8.64167L13.2458 7.57917H12.0416V6.51667H13.2458L12.6437 5.48958L13.5646 4.95833L14.1666 5.98542L14.7687 4.95833L15.6896 5.48958L15.0875 6.51667H16.2916V7.57917H15.0875L15.6896 8.64167L14.7687 9.17292L14.1666 8.11042L13.5646 9.17292Z" fill="white"/>
</g>
</svg>
